<?xml version="1.0" encoding="UTF-8"?>
<svg width="512" height="512" viewBox="0 0 512 512" xmlns="http://www.w3.org/2000/svg">
  <!-- 默认主题 - 粉红色 -->
  <g transform="translate(76, 96)">
    <!-- 文件夹主体 -->
    <path d="M0 64 C0 42.9 17.9 25 40 25 L184 25 L216 57 L360 57 C381.1 57 399 74.9 399 96 L399 288 C399 309.1 381.1 327 360 327 L40 327 C17.9 327 0 309.1 0 288 Z" 
          fill="#e91e63" opacity="0.85"/>
    
    <!-- 文件夹内部 -->
    <path d="M16 80 L383 80 L383 311 L16 311 Z" fill="#f06292" opacity="0.7"/>
    
    <!-- 文件夹标签 -->
    <path d="M184 25 L216 57 L360 57 C370.9 57 380 66.1 380 77 L16 77 L16 64 C16 50.7 26.7 40 40 40 L168 40 Z" 
          fill="#f8bbd9" opacity="0.8"/>
  </g>
</svg>