<?xml version="1.0" encoding="UTF-8"?>
<svg width="512" height="512" viewBox="0 0 512 512" xmlns="http://www.w3.org/2000/svg">
  <!-- 背景圆形 -->
  <circle cx="256" cy="256" r="240" fill="#1a237e" />
  <!-- 仓库图标 -->
  <g fill="#ffffff" transform="translate(100, 100) scale(0.6)">
    <!-- 文件夹图标 -->
    <path d="M420,126H235.9L201.1,91.2A31.8,31.8,0,0,0,178.9,80H92A28,28,0,0,0,64,108V404a28,28,0,0,0,28,28H420a28,28,0,0,0,28-28V154A28,28,0,0,0,420,126ZM420,404H92V168H420Z"/>
    <!-- 代码符号 -->
    <path d="M200,260a20,20,0,0,1-14.1,34.1,20.1,20.1,0,0,1-14.1-5.9l-60-60a20,20,0,0,1,0-28.3l60-60a20,20,0,0,1,28.3,28.3L154.2,224Z"/>
    <path d="M312,260l45.9-45.9a20,20,0,0,0-28.3-28.3l-60,60a20,20,0,0,0,0,28.3l60,60a20,20,0,0,0,28.3-28.3Z"/>
  </g>
</svg> 